<svg width="60" height="60" viewBox="0 0 60 60" fill="none" xmlns="http://www.w3.org/2000/svg">
<path d="M30 60C29.5556 60 29.1389 59.9388 28.75 59.8163C28.3611 59.6957 28 59.4897 27.6667 59.1981L20 52.4909H6.66667C4.83333 52.4909 3.26333 51.9203 1.95667 50.7791C0.652222 49.636 0 48.2625 0 46.6586V5.83232C0 4.22843 0.652222 2.85492 1.95667 1.71179C3.26333 0.570595 4.83333 0 6.66667 0H53.3333C55.1667 0 56.7367 0.570595 58.0433 1.71179C59.3478 2.85492 60 4.22843 60 5.83232V46.6586C60 48.2625 59.3478 49.636 58.0433 50.7791C56.7367 51.9203 55.1667 52.4909 53.3333 52.4909H40L32.3333 59.1981C32 59.4897 31.6389 59.6957 31.25 59.8163C30.8611 59.9388 30.4444 60 30 60ZM30 29.1616C33.2222 29.1616 35.9722 28.1652 38.25 26.1725C40.5278 24.1798 41.6667 21.774 41.6667 18.955C41.6667 16.1361 40.5278 13.7303 38.25 11.7375C35.9722 9.74484 33.2222 8.74848 30 8.74848C26.7778 8.74848 24.0278 9.74484 21.75 11.7375C19.4722 13.7303 18.3333 16.1361 18.3333 18.955C18.3333 21.774 19.4722 24.1798 21.75 26.1725C24.0278 28.1652 26.7778 29.1616 30 29.1616ZM30 53.0741L37.3333 46.6586H53.3333V43.305C50.3333 40.729 46.8478 38.6994 42.8767 37.216C38.9033 35.7346 34.6111 34.9939 30 34.9939C25.3889 34.9939 21.0978 35.7346 17.1267 37.216C13.1533 38.6994 9.66667 40.729 6.66667 43.305V46.6586H22.6667L30 53.0741Z" fill="white"/>
</svg>
