<svg width="50" height="50" viewBox="0 0 50 50" fill="none" xmlns="http://www.w3.org/2000/svg">
<path d="M5.35714 0C2.39955 0 0 2.39955 0 5.35714V44.6429C0 47.6004 2.39955 50 5.35714 50H44.6429C47.6004 50 50 47.6004 50 44.6429V5.35714C50 2.39955 47.6004 0 44.6429 0H5.35714ZM16.3929 14.8699C18.5844 14.8699 20.5315 15.6276 21.9653 16.764C23.2912 17.8189 23.9122 18.8741 24.4539 19.8212L20.6679 21.7128C20.397 21.0917 20.0711 20.442 19.2342 19.7394C18.3136 19.0081 17.3951 18.7925 16.6087 18.7925C13.5254 18.7925 11.9022 21.66 11.9022 24.8513C11.9022 29.0448 14.0407 31.1259 16.6087 31.1259C19.0975 31.1259 20.0996 29.3949 20.7471 28.2872L24.5089 30.2076C23.8041 31.3154 23.1279 32.399 21.6127 33.4519C20.8022 34.02 18.9367 35.1301 16.285 35.1301C11.2261 35.1301 7.14286 31.452 7.14286 24.9855C7.14286 19.3342 10.9838 14.8698 16.3929 14.8698V14.8699ZM24.8173 15.4645H29.9027L33.8516 29.0446L37.7718 15.4645H42.8571L36.23 34.5618H31.3627L24.8173 15.4646V15.4645Z" fill="white" fill-opacity="0.55"/>
</svg>
