<svg width="28" height="28" viewBox="0 0 28 28" fill="none" xmlns="http://www.w3.org/2000/svg">
<path d="M10.0275 3.0475C9.06524 5.13633 8.76628 7.46989 9.1709 9.73383C9.57551 11.9978 10.6643 14.0833 12.2905 15.7095C13.9167 17.3357 16.0022 18.4245 18.2662 18.8291C20.5301 19.2337 22.8637 18.9348 24.9525 17.9725C23.71 23.5675 18.7188 27.75 12.75 27.75C5.84625 27.75 0.25 22.1537 0.25 15.25C0.25 9.28125 4.4325 4.29 10.0275 3.0475ZM20.455 3.11375L21.5 3.375V4.625L20.455 4.88625C20.0155 4.99617 19.6141 5.22344 19.2938 5.54379C18.9734 5.86413 18.7462 6.2655 18.6362 6.705L18.375 7.75H17.125L16.8638 6.705C16.7538 6.2655 16.5266 5.86413 16.2062 5.54379C15.8859 5.22344 15.4845 4.99617 15.045 4.88625L14 4.625V3.375L15.045 3.11375C15.4843 3.00363 15.8854 2.77627 16.2055 2.45594C16.5256 2.13561 16.7527 1.73434 16.8625 1.295L17.125 0.25H18.375L18.6362 1.295C18.7462 1.7345 18.9734 2.13587 19.2938 2.45621C19.6141 2.77656 20.0155 3.00383 20.455 3.11375ZM26.705 9.36375L27.75 9.625V10.875L26.705 11.1362C26.2655 11.2462 25.8641 11.4734 25.5438 11.7938C25.2234 12.1141 24.9962 12.5155 24.8862 12.955L24.625 14H23.375L23.1138 12.955C23.0038 12.5155 22.7766 12.1141 22.4562 11.7938C22.1359 11.4734 21.7345 11.2462 21.295 11.1362L20.25 10.875V9.625L21.295 9.36375C21.7345 9.25383 22.1359 9.02656 22.4562 8.70621C22.7766 8.38587 23.0038 7.9845 23.1138 7.545L23.375 6.5H24.625L24.8862 7.545C24.9962 7.9845 25.2234 8.38587 25.5438 8.70621C25.8641 9.02656 26.2655 9.25383 26.705 9.36375Z" fill="#CAC200"/>
</svg>
