<svg width="50" height="44" viewBox="0 0 50 44" fill="none" xmlns="http://www.w3.org/2000/svg">
<path d="M42.1438 29.902C42.3546 29.7808 42.53 29.6062 42.6521 29.3958C42.7744 29.185 42.8391 28.9457 42.8396 28.702L42.8646 20.6645C42.8651 20.4208 42.9297 20.1816 43.0521 19.9708C43.1748 19.7601 43.3508 19.5855 43.5625 19.4645L47.9167 16.9583C48.1279 16.8375 48.3671 16.7743 48.6104 16.7749C48.8541 16.7755 49.0934 16.8402 49.3042 16.9624C49.515 17.0838 49.6903 17.2584 49.8125 17.4687C49.9341 17.6797 49.9981 17.9189 49.9979 18.1624V32.7749C49.9977 33.0193 49.9331 33.2593 49.8106 33.4707C49.6881 33.6821 49.5119 33.8575 49.3 33.9791L32.8563 43.4249C32.6463 43.5452 32.4086 43.6084 32.1667 43.6084C31.9247 43.6084 31.687 43.5452 31.4771 43.4249L18.5729 36.0458C18.3603 35.9244 18.1835 35.7491 18.0604 35.5374C17.9375 35.3254 17.8728 35.0846 17.8729 34.8395V27.4708C17.8729 27.4624 17.8813 27.4583 17.8896 27.4624C17.8979 27.4666 17.9063 27.4624 17.9063 27.452V27.4437C17.9063 27.4374 17.9104 27.4333 17.9146 27.4291L28.5438 21.3249C28.5521 21.3187 28.5479 21.3041 28.5375 21.3041C28.5359 21.3041 28.5343 21.3037 28.5328 21.303C28.5314 21.3023 28.5301 21.3012 28.5292 21.2999C28.5283 21.2988 28.5276 21.2974 28.5272 21.296C28.5269 21.2946 28.5268 21.2931 28.5271 21.2916L28.5479 14.0687C28.5489 13.824 28.4853 13.5835 28.3634 13.3713C28.2416 13.1591 28.0659 12.9829 27.8542 12.8604C27.6429 12.7384 27.4033 12.6742 27.1594 12.6742C26.9155 12.6742 26.6758 12.7384 26.4646 12.8604L18.5667 17.4145C18.3559 17.5357 18.1171 17.5995 17.874 17.5995C17.6309 17.5995 17.392 17.5357 17.1813 17.4145L9.25625 12.852C9.04519 12.7309 8.80601 12.6673 8.56266 12.6677C8.31931 12.668 8.08031 12.7322 7.86959 12.8539C7.65886 12.9757 7.48379 13.1506 7.36189 13.3612C7.24 13.5718 7.17555 13.8108 7.175 14.0541V27.1104C7.17509 27.3538 7.11124 27.5929 6.98985 27.8039C6.86847 28.0148 6.6938 28.1902 6.48334 28.3124C6.27318 28.4344 6.03467 28.4991 5.79167 28.4999C5.54836 28.5006 5.30913 28.4374 5.09792 28.3166L0.700003 25.802C0.487373 25.6807 0.310575 25.5053 0.187503 25.2937C0.0641898 25.0811 -0.000510423 24.8395 3.0324e-06 24.5937L0.0395864 1.77495C0.0403418 1.5319 0.104832 1.29331 0.226619 1.08297C0.348407 0.872638 0.523232 0.697926 0.733644 0.576275C0.944057 0.454624 1.1827 0.390288 1.42574 0.38969C1.66879 0.389092 1.90774 0.452253 2.11875 0.572867L17.1813 9.22495C17.392 9.34614 17.6309 9.40992 17.874 9.40992C18.1171 9.40992 18.3559 9.34614 18.5667 9.22495L33.625 0.572867C33.8362 0.451981 34.0754 0.388756 34.3188 0.389533C34.5625 0.390023 34.8017 0.454692 35.0125 0.577034C35.2236 0.698955 35.3989 0.874266 35.5208 1.08537C35.6416 1.29658 35.7049 1.5358 35.7042 1.77912V24.6041C35.7042 24.8479 35.6417 25.0874 35.5188 25.2999C35.3963 25.5113 35.2202 25.6867 35.0083 25.8083L27.1229 30.3499C26.9108 30.4722 26.7347 30.6482 26.6125 30.8604C26.4905 31.0719 26.4266 31.312 26.4271 31.5562C26.4273 31.8006 26.492 32.0406 26.6146 32.252C26.7382 32.464 26.9157 32.6394 27.1292 32.7604L31.4792 35.2374C31.6888 35.3562 31.9257 35.4186 32.1667 35.4187C32.4095 35.4184 32.6479 35.3544 32.8583 35.2333L42.1438 29.8999V29.902ZM43.0563 9.42703C43.056 9.67215 43.1207 9.91296 43.2438 10.125C43.3679 10.3372 43.5462 10.5126 43.7604 10.6333C43.9739 10.7539 44.2154 10.8159 44.4606 10.8129C44.7057 10.81 44.9457 10.7423 45.1563 10.6166L49.325 8.11662C49.5305 7.99334 49.7007 7.81893 49.8188 7.61037C49.9374 7.40141 49.9999 7.16525 50 6.92495V1.83328C49.9995 1.58799 49.9341 1.3472 49.8104 1.13537C49.6864 0.923522 49.5085 0.748305 49.2948 0.627544C49.0811 0.506783 48.8392 0.444788 48.5938 0.447867C48.3486 0.450616 48.1085 0.51818 47.8979 0.6437L43.7313 3.1437C43.5249 3.26669 43.3541 3.44113 43.2354 3.64995C43.1176 3.85914 43.0558 4.09526 43.0563 4.33537V9.42703Z" fill="white"/>
</svg>
