<svg width="44" height="48" viewBox="0 0 44 48" fill="none" xmlns="http://www.w3.org/2000/svg">
<path fill-rule="evenodd" clip-rule="evenodd" d="M43.6667 13.0434L22 0.400024L0.333374 13.0434V34.9567L3.68671 36.9134L10.5434 34.14C11.4661 33.7664 12.2562 33.1258 12.8127 32.3004C13.3691 31.4749 13.6665 30.5022 13.6667 29.5067V12.3334H17V29.5067C16.9998 31.1661 16.5041 32.7877 15.5765 34.1637C14.6489 35.5397 13.3316 36.6074 11.7934 37.23L7.32671 39.0367L22 47.6L43.6667 34.96V13.0434ZM20.3334 19C20.3334 17.2319 21.0358 15.5362 22.286 14.286C23.5362 13.0357 25.2319 12.3334 27 12.3334H30.89C34.2634 12.3334 37 15.0667 37 18.4434V19H33.6667V18.4434C33.6667 18.0787 33.5949 17.7177 33.4553 17.3808C33.3158 17.0439 33.1113 16.7378 32.8534 16.48C32.5956 16.2221 32.2895 16.0176 31.9526 15.8781C31.6157 15.7385 31.2547 15.6667 30.89 15.6667H27C26.116 15.6667 25.2681 16.0179 24.643 16.643C24.0179 17.2681 23.6667 18.116 23.6667 19C23.6667 19.8841 24.0179 20.7319 24.643 21.357C25.2681 21.9822 26.116 22.3334 27 22.3334H30.3334C32.1015 22.3334 33.7972 23.0357 35.0474 24.286C36.2977 25.5362 37 27.2319 37 29C37 30.7681 36.2977 32.4638 35.0474 33.7141C33.7972 34.9643 32.1015 35.6667 30.3334 35.6667H27C25.2319 35.6667 23.5362 34.9643 22.286 33.7141C21.0358 32.4638 20.3334 30.7681 20.3334 29H23.6667C23.6667 29.8841 24.0179 30.7319 24.643 31.357C25.2681 31.9822 26.116 32.3334 27 32.3334H30.3334C31.2174 32.3334 32.0653 31.9822 32.6904 31.357C33.3155 30.7319 33.6667 29.8841 33.6667 29C33.6667 28.116 33.3155 27.2681 32.6904 26.643C32.0653 26.0179 31.2174 25.6667 30.3334 25.6667H27C25.2319 25.6667 23.5362 24.9643 22.286 23.7141C21.0358 22.4638 20.3334 20.7681 20.3334 19Z" fill="white"/>
</svg>
