<svg width="60" height="60" viewBox="0 0 60 60" fill="none" xmlns="http://www.w3.org/2000/svg">
<path d="M55.3846 10H43.8462V7.5C43.8386 5.51341 43.1067 3.61053 41.81 2.20579C40.5134 0.801044 38.7569 0.00822615 36.9231 0H23.0769C21.2431 0.00822615 19.4866 0.801044 18.19 2.20579C16.8933 3.61053 16.1614 5.51341 16.1538 7.5V10H4.61538C3.39131 10 2.21737 10.5268 1.35181 11.4645C0.486262 12.4021 0 13.6739 0 15V55C0 56.3261 0.486262 57.5979 1.35181 58.5355C2.21737 59.4732 3.39131 60 4.61538 60H55.3846C56.6087 60 57.7826 59.4732 58.6482 58.5355C59.5137 57.5979 60 56.3261 60 55V15C60 13.6739 59.5137 12.4021 58.6482 11.4645C57.7826 10.5268 56.6087 10 55.3846 10ZM20.7692 7.5C20.7692 6.83696 21.0124 6.20107 21.4451 5.73223C21.8779 5.26339 22.4649 5 23.0769 5H36.9231C37.5351 5 38.1221 5.26339 38.5549 5.73223C38.9876 6.20107 39.2308 6.83696 39.2308 7.5V10H20.7692V7.5ZM55.3846 15V28C47.5976 32.5991 38.8691 35.0061 30 35C21.1309 35.0061 12.4024 32.5991 4.61538 28V15H55.3846ZM55.3846 55H4.61538V33.625C12.5164 37.8226 21.2001 40.0034 30 40C38.8003 40.0067 47.4847 37.8257 55.3846 33.625V55ZM24.2308 27.5C24.2308 26.837 24.4739 26.2011 24.9067 25.7322C25.3395 25.2634 25.9264 25 26.5385 25H33.4615C34.0736 25 34.6605 25.2634 35.0933 25.7322C35.5261 26.2011 35.7692 26.837 35.7692 27.5C35.7692 28.163 35.5261 28.7989 35.0933 29.2678C34.6605 29.7366 34.0736 30 33.4615 30H26.5385C25.9264 30 25.3395 29.7366 24.9067 29.2678C24.4739 28.7989 24.2308 28.163 24.2308 27.5Z" fill="white"/>
</svg>
