<svg width="45" height="41" viewBox="0 0 45 41" fill="none" xmlns="http://www.w3.org/2000/svg">
<path d="M22.4924 24.8656C24.7106 24.8656 26.5087 23.0675 26.5087 20.8494C26.5087 18.6313 24.7106 16.8331 22.4924 16.8331C20.2743 16.8331 18.4762 18.6313 18.4762 20.8494C18.4762 23.0675 20.2743 24.8656 22.4924 24.8656Z" fill="white"/>
<path d="M22.4925 13.6437C27.6825 13.6437 32.6119 14.375 36.36 15.665C40.5225 17.0975 43.0631 19.2162 43.0631 20.8493C43.0631 22.5875 40.32 24.845 35.8669 26.3206C32.3231 27.4943 27.5794 28.1356 22.4925 28.1356C17.1488 28.1356 12.3506 27.5075 8.84813 26.3093C6.65438 25.5593 4.84313 24.5843 3.6 23.5231C2.48438 22.5668 1.92188 21.6181 1.92188 20.8493C1.92188 19.2106 4.36313 17.1218 8.4375 15.7006C12.1875 14.3937 17.2369 13.6437 22.4925 13.6437ZM22.4925 11.72C17.0325 11.72 11.7713 12.5037 7.80375 13.8875C3.04125 15.5468 0 18.1493 0 20.8493C0 23.6356 3.26438 26.4331 8.22563 28.1281C11.955 29.4031 16.9519 30.0575 22.4925 30.0575C27.7725 30.0575 32.7131 29.39 36.4725 28.145C41.6288 26.435 44.985 23.6731 44.985 20.8493C44.985 18.14 41.8444 15.5206 36.9863 13.8462C33.0244 12.4831 27.885 11.72 22.4925 11.72ZM16.215 17.27C18.8081 12.7718 21.9038 8.8681 24.8963 6.26372C28.215 3.37622 31.32 2.23247 32.7338 3.04997C34.2394 3.9181 34.8263 7.4206 33.8794 12.0162C33.1256 15.6725 31.3106 20.1012 28.77 24.5093C26.1 29.1387 23.16 32.9806 20.37 35.4162C18.6263 36.9425 16.8769 38.0243 15.3356 38.57C13.9519 39.0575 12.8475 39.0725 12.1819 38.6881C10.7625 37.8706 10.1719 34.7112 10.9763 30.4737C11.7169 26.5718 13.59 21.8206 16.215 17.2681M14.55 16.3081C11.8219 21.0368 9.87188 25.9868 9.08813 30.1137C8.14875 35.0693 8.88188 39.005 11.22 40.3512C13.6369 41.7462 17.6888 40.3137 21.6356 36.8637C24.6038 34.2706 27.6675 30.2675 30.435 25.4693C33.0713 20.8943 34.9631 16.2818 35.76 12.4025C36.8569 7.0831 36.1406 2.79497 33.6938 1.38497C31.3463 0.031223 27.51 1.44122 23.6325 4.81622C20.475 7.56497 17.2444 11.6375 14.55 16.3081ZM16.2206 24.5168C13.62 20.0281 11.7844 15.395 11.0231 11.5062C10.1775 7.18435 10.7381 3.9256 12.1519 3.1081C13.6556 2.23622 16.9838 3.47935 20.4919 6.59372C23.2856 9.07247 26.2144 12.8562 28.7625 17.2606C31.4419 21.8862 33.3 26.3506 34.02 29.9825C34.47 32.2568 34.5338 34.3137 34.2356 35.9206C33.9675 37.3643 33.4294 38.3281 32.7638 38.7143C31.3463 39.5337 28.3144 38.4668 25.0444 35.6525C22.035 33.065 18.8531 29.0693 16.2206 24.5206M14.5575 25.4843C17.2931 30.2093 20.6063 34.3718 23.7919 37.1093C27.615 40.4 31.3894 41.7275 33.7256 40.3756C36.1388 38.9787 36.9225 34.7525 35.9044 29.6093C35.1394 25.745 33.2025 21.0912 30.4256 16.2968C27.7819 11.7275 24.7275 7.78435 21.7669 5.1556C17.7056 1.54997 13.6331 0.027473 11.1881 1.4431C8.84438 2.8006 8.15063 6.82997 9.13688 11.8737C9.94125 15.9856 11.8556 20.8156 14.5575 25.4825" fill="white"/>
</svg>
