<svg width="60" height="60" viewBox="0 0 60 60" fill="none" xmlns="http://www.w3.org/2000/svg">
<path d="M22 42L26.6667 37.25L19.4167 30L26.6667 22.75L22 18L10 30L22 42ZM38 42L50 30L38 18L33.3333 22.75L40.5833 30L33.3333 37.25L38 42ZM6.66667 60C4.83333 60 3.26333 59.3478 1.95667 58.0433C0.652222 56.7367 0 55.1667 0 53.3333V6.66667C0 4.83333 0.652222 3.26333 1.95667 1.95667C3.26333 0.652222 4.83333 0 6.66667 0H53.3333C55.1667 0 56.7367 0.652222 58.0433 1.95667C59.3478 3.26333 60 4.83333 60 6.66667V53.3333C60 55.1667 59.3478 56.7367 58.0433 58.0433C56.7367 59.3478 55.1667 60 53.3333 60H6.66667Z" fill="white"/>
</svg>
